<svg width="14" height="14" xmlns="http://www.w3.org/2000/svg">
    <path
        d="m6.83,10.34c0.13,0.04 0.25,0.07 0.38,0.08c0.12,0.01 0.25,0.01 0.37,0.01c0.31,0 0.62,-0.04 0.9,-0.13c0.29,-0.08 0.56,-0.2 0.81,-0.36c0.26,-0.16 0.49,-0.36 0.68,-0.58c0.21,-0.24 0.37,-0.5 0.49,-0.78l2.35,2.36c-0.3,0.42 -0.64,0.8 -1.03,1.13c-0.39,0.34 -0.8,0.63 -1.26,0.86c-0.44,0.23 -0.91,0.41 -1.41,0.53c-0.5,0.12 -1,0.18 -1.53,0.18c-0.88,0 -1.71,-0.16 -2.49,-0.49c-0.78,-0.33 -1.46,-0.78 -2.04,-1.37c-0.58,-0.58 -1.04,-1.28 -1.37,-2.08c-0.34,-0.82 -0.51,-1.71 -0.51,-2.68c0,-0.99 0.17,-1.9 0.51,-2.72c0.33,-0.82 0.79,-1.51 1.37,-2.09c0.58,-0.58 1.26,-1.03 2.04,-1.35c0.78,-0.32 1.61,-0.48 2.49,-0.48c0.53,0 1.04,0.06 1.54,0.19c0.5,0.12 0.97,0.3 1.42,0.54c0.45,0.23 0.87,0.52 1.26,0.86c0.39,0.34 0.74,0.72 1.03,1.14l-6,7.23zm1.64,-6.6c-0.15,-0.05 -0.29,-0.09 -0.44,-0.1c-0.14,-0.02 -0.29,-0.03 -0.45,-0.03c-0.44,0 -0.85,0.09 -1.24,0.25c-0.38,0.16 -0.72,0.38 -1.01,0.68c-0.28,0.3 -0.5,0.66 -0.67,1.08c-0.16,0.41 -0.24,0.88 -0.24,1.4c0,0.12 0,0.25 0.01,0.4c0.02,0.15 0.03,0.3 0.06,0.46c0.03,0.15 0.06,0.29 0.1,0.43c0.04,0.14 0.09,0.27 0.16,0.38l3.72,-4.95z"
        fill="#072AC8" />
</svg>